<svg xmlns="http://www.w3.org/2000/svg" xmlns:xlink="http://www.w3.org/1999/xlink" viewBox="0 0 170 28"><path d="M 36.762 19.237 L 45.462 19.237 L 45.204 16.052 L 37.044 16.052 Z M 41.065 11.634 L 43.393 17.237 L 43.253 18.299 L 45.227 22.569 L 49.742 22.569 L 41.065 4.203 L 32.412 22.57 L 36.903 22.57 L 38.949 18.127 L 38.761 17.213 L 41.065 11.635 Z M 53.278 16.497 L 50.503 18.595 C 50.879 19.418 51.404 20.175 52.078 20.865 C 52.759 21.561 53.564 22.123 54.453 22.52 C 55.378 22.915 56.373 23.112 57.439 23.112 C 58.208 23.112 58.952 22.989 59.673 22.742 C 60.384 22.525 61.047 22.173 61.625 21.705 C 62.202 21.248 62.669 20.665 62.989 20.002 C 63.334 19.311 63.506 18.529 63.506 17.657 C 63.506 16.933 63.396 16.291 63.177 15.731 C 62.966 15.185 62.655 14.683 62.26 14.251 C 61.882 13.821 61.437 13.454 60.943 13.164 C 60.428 12.845 59.885 12.572 59.321 12.35 C 58.653 12.111 57.994 11.847 57.345 11.56 C 56.812 11.313 56.397 11.041 56.099 10.745 C 55.825 10.47 55.673 10.096 55.676 9.708 C 55.676 9.33 55.825 9.018 56.123 8.77 C 56.42 8.507 56.852 8.375 57.416 8.375 C 57.839 8.375 58.231 8.465 58.592 8.647 C 58.973 8.816 59.317 9.059 59.602 9.363 C 59.916 9.659 60.191 10.013 60.426 10.424 L 63.459 8.647 C 63.177 8.054 62.769 7.47 62.236 6.894 C 61.703 6.318 61.029 5.841 60.214 5.462 C 59.414 5.084 58.466 4.895 57.369 4.895 C 56.303 4.895 55.331 5.092 54.453 5.487 C 53.619 5.842 52.902 6.424 52.383 7.166 C 51.883 7.906 51.631 8.786 51.631 9.807 C 51.631 10.663 51.781 11.395 52.078 12.004 C 52.361 12.576 52.744 13.094 53.207 13.534 C 53.661 13.946 54.14 14.284 54.641 14.546 C 55.159 14.81 55.613 15.016 56.005 15.164 C 56.805 15.476 57.447 15.756 57.933 16.003 C 58.419 16.25 58.772 16.513 58.991 16.793 C 59.211 17.056 59.321 17.41 59.321 17.854 C 59.321 18.381 59.133 18.801 58.756 19.114 C 58.38 19.41 57.902 19.558 57.322 19.558 C 56.775 19.559 56.236 19.432 55.746 19.188 C 55.231 18.919 54.77 18.559 54.383 18.126 C 53.951 17.629 53.58 17.082 53.278 16.496 Z M 64.517 9.017 L 69.032 9.017 L 69.032 22.57 L 73.006 22.57 L 73.006 9.017 L 77.544 9.017 L 77.544 5.29 L 64.517 5.29 Z M 83.46 14.744 L 88.068 22.569 L 92.724 22.569 L 87.574 14.744 L 83.459 14.744 Z M 79.343 5.29 L 79.343 22.57 L 83.317 22.57 L 83.317 5.29 Z M 81.836 8.82 L 85.057 8.82 C 85.59 8.82 86.045 8.91 86.421 9.091 C 86.813 9.272 87.111 9.535 87.314 9.881 C 87.518 10.211 87.62 10.613 87.62 11.091 C 87.62 11.568 87.518 11.979 87.314 12.325 C 87.1 12.664 86.789 12.93 86.421 13.09 C 86.045 13.255 85.59 13.337 85.057 13.337 L 81.836 13.337 L 81.836 16.571 L 85.339 16.571 C 86.75 16.571 87.926 16.332 88.866 15.855 C 89.806 15.378 90.52 14.719 91.006 13.88 C 91.492 13.024 91.736 12.045 91.736 10.942 C 91.736 9.823 91.492 8.844 91.006 8.005 C 90.52 7.149 89.806 6.483 88.866 6.005 C 87.926 5.528 86.75 5.29 85.339 5.29 L 81.836 5.29 Z M 97.837 13.93 C 97.837 12.91 98.025 12.012 98.401 11.239 C 98.793 10.449 99.334 9.832 100.024 9.387 C 100.729 8.943 101.552 8.721 102.493 8.721 C 103.449 8.721 104.272 8.943 104.962 9.387 C 105.652 9.832 106.185 10.449 106.561 11.239 C 106.937 12.012 107.125 12.909 107.125 13.929 C 107.125 14.949 106.929 15.855 106.537 16.645 C 106.181 17.395 105.618 18.029 104.915 18.471 C 104.225 18.916 103.418 19.138 102.493 19.138 C 101.552 19.138 100.729 18.916 100.024 18.471 C 99.328 18.02 98.767 17.389 98.401 16.645 C 98.025 15.855 97.837 14.95 97.837 13.929 Z M 93.628 13.93 C 93.628 15.262 93.84 16.488 94.263 17.608 C 94.678 18.689 95.301 19.678 96.097 20.52 C 96.897 21.343 97.837 21.985 98.919 22.446 C 100 22.89 101.192 23.112 102.493 23.112 C 103.778 23.112 104.962 22.89 106.044 22.446 C 107.099 22.003 108.052 21.347 108.842 20.52 C 109.648 19.687 110.273 18.695 110.676 17.608 C 111.115 16.488 111.334 15.262 111.334 13.929 C 111.334 12.596 111.115 11.379 110.676 10.276 C 110.258 9.205 109.626 8.231 108.818 7.413 C 108.017 6.605 107.056 5.974 105.996 5.561 C 104.931 5.117 103.763 4.895 102.493 4.895 C 101.239 4.895 100.071 5.117 98.989 5.561 C 97.93 5.975 96.969 6.605 96.168 7.413 C 95.358 8.234 94.719 9.207 94.286 10.276 C 93.847 11.379 93.628 12.596 93.628 13.929 Z M 117.055 28 L 117.055 11.214 L 113.504 11.214 L 113.504 28 Z M 125.896 16.892 C 125.896 15.559 125.645 14.448 125.144 13.559 C 124.658 12.654 124.023 11.971 123.239 11.51 C 122.488 11.054 121.625 10.816 120.747 10.82 C 119.806 10.82 118.991 11.074 118.301 11.584 C 117.627 12.078 117.11 12.777 116.749 13.683 C 116.389 14.588 116.208 15.657 116.208 16.892 C 116.208 18.109 116.389 19.179 116.749 20.101 C 117.11 21.006 117.627 21.714 118.301 22.224 C 118.991 22.717 119.806 22.964 120.747 22.964 C 121.64 22.964 122.471 22.734 123.239 22.273 C 124.023 21.813 124.658 21.129 125.144 20.224 C 125.645 19.319 125.896 18.208 125.896 16.892 Z M 122.158 16.892 C 122.158 17.484 122.04 17.986 121.805 18.397 C 121.586 18.793 121.26 19.118 120.864 19.336 C 120.089 19.756 119.155 19.765 118.372 19.36 C 117.983 19.133 117.659 18.81 117.431 18.422 C 117.18 18.011 117.055 17.5 117.055 16.892 C 117.055 16.282 117.18 15.772 117.431 15.362 C 117.682 14.95 117.996 14.645 118.372 14.448 C 118.738 14.241 119.151 14.13 119.571 14.127 C 120.041 14.127 120.472 14.234 120.864 14.447 C 121.26 14.665 121.586 14.991 121.805 15.386 C 122.04 15.797 122.158 16.299 122.158 16.892 Z M 131.756 18.126 L 131.756 11.214 L 128.041 11.214 L 128.041 18.521 C 128.041 19.871 128.346 20.931 128.958 21.705 C 129.585 22.462 130.572 22.841 131.92 22.841 C 132.72 22.841 133.386 22.668 133.919 22.322 C 134.462 21.949 134.906 21.449 135.212 20.866 L 135.212 22.569 L 138.763 22.569 L 138.763 11.214 L 135.212 11.214 L 135.212 18.126 C 135.212 18.57 135.134 18.949 134.977 19.261 C 134.833 19.559 134.604 19.809 134.319 19.977 C 134.052 20.142 133.723 20.224 133.331 20.224 C 132.751 20.224 132.344 20.044 132.108 19.681 C 131.873 19.303 131.756 18.784 131.756 18.126 Z M 141.566 3.315 L 141.566 22.569 L 145.14 22.569 L 145.14 3.315 Z M 148.491 18.447 L 147.01 20.915 C 147.506 21.317 148.033 21.681 148.585 22.002 C 149.165 22.321 149.781 22.569 150.42 22.742 C 151.131 22.944 151.867 23.044 152.606 23.038 C 153.892 23.038 154.887 22.734 155.593 22.125 C 156.314 21.5 156.674 20.578 156.674 19.36 C 156.674 18.653 156.525 18.085 156.228 17.657 C 155.933 17.217 155.538 16.853 155.075 16.595 C 154.58 16.303 154.061 16.056 153.523 15.855 C 153.073 15.672 152.618 15.499 152.16 15.336 C 151.799 15.188 151.517 15.032 151.313 14.867 C 151.131 14.715 151.027 14.488 151.031 14.25 C 151.031 14.036 151.109 13.864 151.266 13.732 C 151.439 13.6 151.689 13.534 152.019 13.534 C 152.505 13.534 153.038 13.683 153.618 13.979 C 154.191 14.254 154.715 14.621 155.169 15.065 L 156.439 12.645 C 156.013 12.314 155.556 12.025 155.075 11.782 C 154.589 11.529 154.077 11.33 153.547 11.189 C 152.98 11.036 152.394 10.962 151.807 10.967 C 151.023 10.967 150.326 11.091 149.714 11.337 C 149.146 11.563 148.651 11.938 148.28 12.424 C 147.935 12.901 147.762 13.485 147.762 14.176 C 147.762 14.9 147.911 15.493 148.209 15.954 C 148.507 16.414 148.883 16.784 149.338 17.064 C 149.808 17.328 150.302 17.558 150.819 17.756 C 151.399 17.936 151.854 18.109 152.183 18.274 C 152.528 18.439 152.771 18.611 152.912 18.792 C 153.053 18.957 153.124 19.162 153.124 19.409 C 153.133 19.65 153.039 19.884 152.865 20.051 C 152.693 20.216 152.426 20.298 152.066 20.298 C 151.815 20.298 151.517 20.248 151.172 20.15 C 150.755 20.001 150.353 19.811 149.973 19.582 C 149.534 19.302 149.04 18.924 148.491 18.447 Z M 164.13 22.816 C 165.509 22.816 166.677 22.536 167.633 21.976 C 168.605 21.417 169.373 20.578 169.938 19.459 L 166.763 18.644 C 166.521 19.113 166.144 19.5 165.682 19.755 C 165.243 20.002 164.71 20.125 164.083 20.125 C 163.534 20.125 163.072 20.002 162.695 19.755 C 162.319 19.492 162.037 19.113 161.849 18.62 C 161.661 18.126 161.567 17.533 161.567 16.842 C 161.582 16.085 161.676 15.46 161.849 14.966 C 162.037 14.456 162.311 14.078 162.672 13.831 C 163.032 13.584 163.479 13.461 164.012 13.461 C 164.435 13.461 164.804 13.559 165.117 13.757 C 165.431 13.954 165.674 14.234 165.846 14.596 C 166.019 14.958 166.105 15.386 166.105 15.88 C 166.105 15.995 166.074 16.143 166.011 16.324 C 165.971 16.473 165.907 16.615 165.823 16.744 L 166.669 15.608 L 159.991 15.608 L 159.991 17.682 L 169.867 17.682 C 169.898 17.566 169.914 17.427 169.914 17.262 L 169.914 16.719 C 169.914 15.501 169.687 14.464 169.232 13.609 C 168.793 12.769 168.103 12.087 167.257 11.659 C 166.395 11.198 165.337 10.967 164.083 10.967 C 162.829 10.967 161.739 11.206 160.814 11.683 C 159.926 12.14 159.196 12.854 158.721 13.732 C 158.235 14.621 157.992 15.674 157.992 16.892 C 157.992 18.093 158.243 19.138 158.745 20.027 C 159.237 20.906 159.972 21.626 160.861 22.1 C 161.786 22.577 162.876 22.816 164.13 22.816 Z M 14.185 3.521 C 15.261 4.54 15.665 6.127 15.22 7.573 L 14.307 10.531 C 13.765 12.291 13.358 12.429 11.932 11.344 L 9.542 9.524 C 8.372 8.634 7.807 7.104 8.102 5.617 L 8.866 1.768 C 9.274 -0.289 9.925 -0.512 11.41 0.895 L 14.184 3.521 Z M 24.942 7.234 C 25.758 5.315 25.354 4.734 23.365 4.962 L 19.642 5.39 C 18.204 5.555 16.992 6.59 16.547 8.035 L 15.637 10.983 C 15.095 12.743 15.347 13.103 17.107 13.102 L 20.069 13.102 C 21.517 13.1 22.829 12.204 23.42 10.815 Z M 23.381 22.702 C 25.371 22.924 25.773 22.342 24.951 20.425 L 23.414 16.841 C 22.82 15.456 21.507 14.566 20.061 14.568 L 17.109 14.571 C 15.348 14.573 15.097 14.936 15.642 16.694 L 16.561 19.65 C 17.009 21.096 18.226 22.13 19.666 22.29 L 23.381 22.703 Z M 8.885 25.925 C 9.299 27.98 9.951 28.201 11.433 26.789 L 14.205 24.146 C 15.276 23.126 15.677 21.54 15.228 20.096 L 14.313 17.15 C 13.767 15.392 13.361 15.254 11.937 16.342 L 9.543 18.172 C 8.372 19.067 7.811 20.601 8.111 22.088 Z M 1.487 12.446 C -0.247 13.496 -0.246 14.214 1.491 15.257 L 4.742 17.209 C 5.991 17.963 7.574 17.872 8.728 16.979 L 11.114 15.154 C 12.538 14.066 12.538 13.617 11.112 12.532 L 8.714 10.707 C 7.557 9.816 5.971 9.729 4.724 10.488 Z" fill="rgb(148, 163, 184)"></path></svg>